<svg width="204" height="122" viewBox="0 0 204 122" fill="none" xmlns="http://www.w3.org/2000/svg">
<path d="M25.2227 9.38255L104.288 0V78.7791L25.7948 100.462L25.2227 9.38255Z" fill="#BC8856"/>
<path d="M104.285 0L170.65 11.6138V101.949L104.285 78.7791V0Z" fill="#CE9C6A"/>
<path d="M91.644 22.4831L25.2224 9.38184L25.0508 100.461L91.7584 121.229L91.644 22.4831Z" fill="#D7A874"/>
<path d="M70.9915 60.929L91.6446 22.4834L11.6641 39.6466L70.9915 60.929Z" fill="#BD8963"/>
<path d="M91.6449 22.4831L70.0765 55.322L0.851562 36.7285L25.2233 9.38184L91.6449 22.4831Z" fill="#EBBF88"/>
<path d="M91.6484 22.4833L170.656 11.6133V102.693L91.7629 121.229L91.6484 22.4833Z" fill="#C69664"/>
<path d="M170.656 47.8849L111.501 60.929L91.6484 22.4834L170.656 41.1341V47.8849Z" fill="#BB8760"/>
<path d="M170.656 11.6133L203.152 35.8134L113.789 55.3222L91.6484 22.4833L170.656 11.6133Z" fill="#EBC089"/>
</svg>
