<svg width="161" height="54" viewBox="0 0 161 54" fill="none" xmlns="http://www.w3.org/2000/svg">
    <path fill-rule="evenodd" clip-rule="evenodd" d="M158.062 40.2684H161C158.911 35.4597 156.308 28.3843 154.378 22.5325H150.126C147.78 28.1579 145.357 34.6705 143.476 40.2684H146.181C146.696 38.6655 147.238 37.0106 147.805 35.3312H156.129C156.776 37.1115 157.47 38.7909 158.062 40.2684ZM152.497 24.6676C153.349 27.3656 154.328 30.3175 155.357 33.1165H148.552C149.584 30.2411 150.665 27.3901 151.775 24.6676H152.497Z" fill="#333333"/>
    <path fill-rule="evenodd" clip-rule="evenodd" d="M132.967 31.8684V24.7166H138.521C140.163 24.7166 141.021 26.0411 141.021 28.4332C141.021 30.5714 140.163 31.8684 138.421 31.8684H132.967ZM132.967 40.2684V34.0862H139.001C142.512 34.0862 143.848 31.3637 143.848 28.4608C143.848 25.203 142.71 22.5325 138.899 22.5325H130.389V40.2684H132.967Z" fill="#333333"/>
    <path fill-rule="evenodd" clip-rule="evenodd" d="M119.58 22.095C114.228 22.095 111.662 24.0558 111.662 31.2841C111.662 38.5889 114.228 40.6232 119.58 40.6232C124.957 40.6232 127.498 38.5889 127.498 31.2841C127.498 24.0558 124.932 22.095 119.58 22.095ZM119.58 38.3075C115.548 38.3075 114.349 37.087 114.349 31.3361C114.349 25.3803 115.545 24.3892 119.58 24.3892C123.637 24.3892 124.861 25.3803 124.861 31.3361C124.858 37.087 123.637 38.3075 119.58 38.3075Z" fill="#333333"/>
    <path fill-rule="evenodd" clip-rule="evenodd" d="M106.509 24.744V40.2683H109.112V22.5293H97.5098C97.2278 28.9929 95.6288 35.0007 93.8748 40.2652H96.6855C98.4116 35.38 99.5985 29.4762 99.9332 24.7409H106.509V24.744Z" fill="#333333"/>
    <path fill-rule="evenodd" clip-rule="evenodd" d="M81.9007 22.5598C75.3156 22.7801 73.3756 24.6399 73.23 28.4973C73.2238 28.6594 73.2207 31.1861 73.2207 31.3574C73.2207 35.5574 75.2722 37.613 82.1362 37.8424V40.2835L84.7424 40.2713V37.8302C91.6963 37.6008 93.8748 35.5788 93.8748 31.3544C93.8748 31.1555 93.8686 28.6013 93.8624 28.4116C93.6858 24.5879 91.6436 22.774 84.9841 22.5537H81.9007V22.5598ZM91.2594 31.385C91.2594 34.3124 89.7905 35.5329 84.7393 35.6859V24.7256C89.4341 24.8204 91.1292 25.8605 91.2439 28.4178C91.2532 28.6105 91.2594 31.1739 91.2594 31.385ZM75.8176 31.385C75.8176 31.2045 75.8207 28.6655 75.8269 28.5003C75.9229 25.9094 77.5592 24.8694 82.13 24.7256V35.6889C77.2617 35.5085 75.8176 34.2879 75.8176 31.385Z" fill="#333333"/>
    <path fill-rule="evenodd" clip-rule="evenodd" d="M151.105 16.4971C150.157 16.6653 149.643 17.1272 148.536 19.9904H149.894C150.808 17.1853 151.471 16.7907 152.45 16.7907H153.832V19.9904H154.997V12.135H151.152C149.429 12.135 148.914 13.1842 148.914 14.4231C148.911 15.5274 149.438 16.4757 151.105 16.4971ZM153.832 15.821H151.378C150.612 15.821 150.2 15.3377 150.2 14.5026C150.2 13.5911 150.612 13.1047 151.331 13.1047H153.832V15.821ZM141.198 13.0833C141.573 14.2763 142.01 15.5824 142.466 16.8244H139.45C139.906 15.5519 140.386 14.2885 140.876 13.0833H141.198ZM143.665 19.9904H144.966C144.043 17.8614 142.887 14.729 142.032 12.135H140.148C139.109 14.625 138.037 17.5096 137.204 19.9904H138.403C138.632 19.2807 138.871 18.5466 139.125 17.8033H142.813C143.095 18.5925 143.404 19.3358 143.665 19.9904ZM127.857 16.3288H131.672V19.9904H132.825V12.135H131.672V15.2796H127.857V12.135H126.705V19.9904H127.857V16.3288ZM117.017 19.9904V17.2526H119.744C121.331 17.2526 121.935 16.0474 121.935 14.7626C121.935 13.3188 121.421 12.135 119.698 12.135H115.852V19.9904H117.017ZM117.017 16.2707V13.1047H119.527C120.271 13.1047 120.659 13.692 120.659 14.7504C120.659 15.6987 120.271 16.2738 119.481 16.2738H117.017V16.2707ZM105.545 12.135V19.9904H111.151V19.0115H106.698V16.3166H109.859V15.3469H106.698V13.1169H111.151V12.135H105.545ZM98.6223 15.7996C100.039 15.6742 100.231 14.989 100.231 14.0071C100.231 12.9364 99.8991 12.135 98.3124 12.135H94.2591V19.9904H98.4023C99.6822 19.9904 100.423 19.3021 100.423 17.8033C100.426 16.6776 100.128 15.8669 98.6223 15.7996ZM95.4119 13.1047H98.1389C98.8114 13.1047 99.0066 13.4993 99.0066 14.209C99.0066 14.8513 98.8021 15.3591 98.1389 15.3591H95.4119V13.1047ZM95.4119 19.0207V16.2952H98.1854C98.8702 16.2952 99.1801 16.858 99.1801 17.7054C99.1801 18.516 98.9291 19.0238 98.2319 19.0238H95.4119V19.0207ZM83.9429 12.135V19.9904H89.5488V19.0115H85.0957V16.3166H88.2565V15.3469H85.0957V13.1169H89.5488V12.135H83.9429ZM73.4097 15.9893C73.4097 19.189 74.5966 20.1464 77.0974 20.1464C77.8164 20.1464 78.7305 20.0332 79.3472 19.8528L79.0621 18.828C78.6066 18.9871 77.8195 19.088 77.2369 19.088C75.3651 19.088 74.6679 18.6353 74.6679 15.9985C74.6679 13.3494 75.3651 12.9884 77.2369 12.9884C77.8195 12.9884 78.6066 13.0894 79.0621 13.2576L79.3472 12.2329C78.7429 12.0646 77.8164 11.9392 77.0974 11.9392C74.5966 11.9453 73.4097 12.7774 73.4097 15.9893Z" fill="#333333"/>
    <path fill-rule="evenodd" clip-rule="evenodd" d="M10.1892 22.3214L10.183 28.6076C10.183 36.0256 14.2208 39.0417 21.5497 38.7939L15.8601 46.0743C11.5806 45.2147 8.33293 43.8871 5.92199 42.067C1.61452 38.8184 0 34.1412 0 27.9071L0.0154945 22.2847L0.030989 19.917C0.254109 14.16 1.89962 9.86525 6.08623 6.88582C9.41444 4.51817 14.3262 3.06516 21.4134 2.45337V11.1745C18.175 11.2326 15.5472 10.9542 13.7746 11.9943C11.3729 13.4014 10.3224 15.5794 10.2016 18.7087L10.1892 22.3214Z" fill="#008027"/>
    <path fill-rule="evenodd" clip-rule="evenodd" d="M50.1742 4.91576C55.6097 3.99807 62.1948 3.74724 67.1128 0C63.3197 0.991106 58.095 3.86348 41.9993 2.64295C40.9426 2.52365 39.8332 2.42576 38.6711 2.34623H38.668C37.5462 2.26976 36.3686 2.21164 35.1415 2.17493L35.0981 2.16881H26.2538L26.2105 2.17493L25.5411 2.1994V25.4873C23.1642 19.036 19.7276 17.5891 16.3622 15.7231C11.0879 27.8703 18.299 33.5049 23.4958 35.897L20.964 29.2805L23.97 35.0558L25.5442 31.4768V31.486C31.4476 18.2743 33.1086 8.98419 50.1742 4.91576Z" fill="#56AD24"/>
    <path fill-rule="evenodd" clip-rule="evenodd" d="M60.8592 18.5496C61.9841 15.0256 63.8776 9.03311 67.1128 7.31396C59.3284 18.4945 65.8299 34.7958 55.7956 42.0914C51.6958 45.0739 45.2966 46.7104 35.7706 47.1356V53.9602L25.5628 54V42.7154L31.6088 39.1915C52.4705 39.4331 56.7563 30.2654 60.8592 18.5496Z" fill="#56AD24"/>
    <path fill-rule="evenodd" clip-rule="evenodd" d="M13.6227 53.6697C14.4811 53.6973 15.3364 53.7248 16.1917 53.7554C22.9876 41.4828 37.32 23.8784 55.337 10.2109C45.4794 16.6654 25.665 33.921 13.6227 53.6697Z" fill="#56AD24"/>
</svg>
