<svg width="12" height="12" viewBox="0 0 12 12" fill="none" xmlns="http://www.w3.org/2000/svg">
<path d="M11.49 0.519785C11.2607 0.286224 10.97 0.122509 10.6515 0.047129C10.333 -0.0282511 9.99966 -0.0120027 9.68999 0.094004L1.19897 2.93092C0.857235 3.04342 0.558808 3.25896 0.344718 3.54811C0.130629 3.83725 0.0114276 4.18549 0.00353195 4.54518C-0.00436365 4.90486 0.0994555 5.25815 0.300651 5.55641C0.501847 5.85467 0.790541 6.08331 1.12701 6.2107L4.27099 7.4109C4.34252 7.43838 4.40763 7.48028 4.46233 7.53395C4.51703 7.58761 4.56014 7.65192 4.58898 7.72291L5.78899 10.8728C6.03899 11.5528 6.68897 12.0038 7.41497 11.9998H7.45696C7.81757 11.9932 8.1671 11.8741 8.45654 11.6589C8.74597 11.4437 8.96083 11.143 9.07098 10.7996L11.909 2.30055C12.0121 1.99406 12.0275 1.66509 11.9532 1.35035C11.879 1.03561 11.7182 0.747901 11.489 0.519785H11.49Z" fill="#333333"/>
</svg>