<svg width="29" height="16" viewBox="0 0 29 16" fill="none" xmlns="http://www.w3.org/2000/svg">
<path fill-rule="evenodd" clip-rule="evenodd" d="M14.1886 15.933H15.922C15.922 15.933 16.4456 15.8774 16.7129 15.5987C16.959 15.3429 16.9511 14.8623 16.9511 14.8623C16.9511 14.8623 16.9173 12.6129 17.9968 12.2816C19.0609 11.9553 20.4274 14.4557 21.8758 15.4171C22.9711 16.1447 23.8034 15.9852 23.8034 15.9852L27.6762 15.933C27.6762 15.933 29.7021 15.8123 28.7415 14.2718C28.6628 14.1458 28.1821 13.1322 25.862 11.0495C23.4337 8.86975 23.7589 9.22232 26.684 5.45177C28.4655 3.15547 29.1777 1.75356 28.9553 1.15312C28.7431 0.581231 27.4329 0.732388 27.4329 0.732388L23.0723 0.75866C23.0723 0.75866 22.7491 0.716016 22.5093 0.854608C22.2751 0.990536 22.1243 1.30732 22.1243 1.30732C22.1243 1.30732 21.4341 3.08427 20.5137 4.59546C18.572 7.78423 17.7956 7.95252 17.4783 7.75453C16.7401 7.29307 16.9243 5.90067 16.9243 4.91149C16.9243 1.82133 17.409 0.532877 15.9807 0.199341C15.5066 0.0885435 15.1578 0.0154398 13.9456 0.00363663C12.3898 -0.0119741 11.0729 0.00820512 10.3272 0.36154C9.83114 0.596462 9.44847 1.11999 9.68154 1.15007C9.96972 1.18738 10.6225 1.32026 10.9685 1.77602C11.4154 2.3639 11.3996 3.68433 11.3996 3.68433C11.3996 3.68433 11.6563 7.322 10.8 7.77395C10.2122 8.08388 9.40595 7.45108 7.67487 4.55815C6.78788 3.07628 6.1182 1.4383 6.1182 1.4383C6.1182 1.4383 5.98907 1.13217 5.75876 0.968452C5.47924 0.770082 5.08869 0.706879 5.08869 0.706879L0.945052 0.73315C0.945052 0.73315 0.323014 0.749904 0.094671 1.01148C-0.108476 1.24412 0.0785294 1.72538 0.0785294 1.72538C0.0785294 1.72538 3.32258 9.06545 6.99575 12.7644C10.3638 16.1558 14.1886 15.933 14.1886 15.933Z" fill="#1A1F2C"/>
</svg>
