<svg width="276" height="85" viewBox="0 0 276 85" fill="none" xmlns="http://www.w3.org/2000/svg">
<g clip-path="url(#clip0_1224_2)">
<mask id="mask0_1224_2" style="mask-type:luminance" maskUnits="userSpaceOnUse" x="0" y="0" width="276" height="85">
<path d="M276 0H0V85H276V0Z" fill="white"/>
</mask>
<g mask="url(#mask0_1224_2)">
<path d="M176.06 10.8594H159.789C157.183 10.8594 155.041 13.0059 155.041 15.6164V40.562C155.041 41.8963 156.141 42.9985 157.473 42.9985C158.805 42.9985 159.905 41.8963 159.905 40.562V15.6744H176.06V40.562C176.06 41.8963 177.16 42.9985 178.492 42.9985C179.824 42.9985 180.924 41.8963 180.924 40.562V15.6164C180.75 13.0059 178.665 10.8594 176.06 10.8594Z" fill="white"/>
<path d="M220.761 10.8594H204.49C201.885 10.8594 199.742 13.0059 199.742 15.6164V40.562C199.742 41.8963 200.842 42.9985 202.174 42.9985C203.506 42.9985 204.606 41.8963 204.606 40.562V15.6744H220.761V40.562C220.761 41.8963 221.861 42.9985 223.193 42.9985C224.525 42.9985 225.625 41.8963 225.625 40.562V15.6164C225.451 13.0059 223.367 10.8594 220.761 10.8594Z" fill="white"/>
<path d="M123.658 12.2517C123.252 11.3815 122.442 10.8594 121.457 10.8594C120.531 10.8594 119.662 11.3815 119.257 12.2517L106.403 39.5177C105.824 40.736 106.345 42.1283 107.561 42.7085C108.777 43.2886 110.166 42.7665 110.745 41.5482L113.814 35.0508H129.043L132.111 41.5482C132.517 42.4184 133.385 42.9405 134.312 42.9405C134.659 42.9405 135.007 42.8825 135.354 42.7085C136.57 42.1283 137.091 40.678 136.512 39.5177L123.658 12.2517ZM116.072 30.2937L121.457 18.9232L126.784 30.2937H116.072Z" fill="white"/>
<path d="M274.321 11.0334C273.337 10.6853 272.237 10.9754 271.542 11.7876L260.077 24.8985L248.612 11.7296C247.917 10.9754 246.817 10.6853 245.833 10.9754C244.849 11.3235 244.154 12.2517 244.154 13.2379V40.504C244.154 41.8383 245.254 42.9405 246.644 42.9405C248.033 42.9405 249.133 41.8383 249.133 40.504V19.9674L258.05 30.2357C258.514 30.7578 259.266 31.1059 259.961 31.1059C260.656 31.1059 261.409 30.8158 261.872 30.2357L270.789 19.9674V40.562C270.789 41.8963 271.889 42.9985 273.279 42.9985C274.669 42.9985 275.769 41.8963 275.769 40.562V13.2959C276 12.2517 275.306 11.3815 274.321 11.0334Z" fill="white"/>
<path d="M106.171 63.9993L108.429 58.6621H109.471L111.729 63.9993H110.571L110.05 62.781H107.85L107.329 63.9993H106.171ZM108.197 61.9108H109.761L109.008 60.0544L108.197 61.9108Z" fill="white"/>
<path d="M116.304 64.1153C115.493 64.1153 114.798 63.8833 114.277 63.3612C113.756 62.839 113.466 62.2009 113.466 61.3887C113.466 60.5765 113.756 59.9384 114.277 59.4163C114.798 58.8942 115.493 58.6621 116.304 58.6621C116.825 58.6621 117.288 58.7781 117.693 59.0102V60.1124C117.288 59.8224 116.825 59.7063 116.304 59.7063C115.782 59.7063 115.377 59.8804 115.03 60.1704C114.682 60.5185 114.509 60.9246 114.509 61.3887C114.509 61.9108 114.682 62.3169 115.03 62.607C115.377 62.9551 115.782 63.0711 116.304 63.0711C116.883 63.0711 117.346 62.8971 117.751 62.607V63.7092C117.404 63.9993 116.883 64.1153 116.304 64.1153Z" fill="white"/>
<path d="M122.789 64.1153C121.978 64.1153 121.283 63.8833 120.762 63.3612C120.241 62.839 119.951 62.2009 119.951 61.3887C119.951 60.5765 120.241 59.9384 120.762 59.4163C121.283 58.8942 121.978 58.6621 122.789 58.6621C123.31 58.6621 123.773 58.7781 124.178 59.0102V60.1124C123.773 59.8224 123.31 59.7063 122.789 59.7063C122.268 59.7063 121.862 59.8804 121.515 60.1704C121.167 60.5185 120.994 60.9246 120.994 61.3887C120.994 61.9108 121.167 62.3169 121.515 62.607C121.862 62.9551 122.268 63.0711 122.789 63.0711C123.368 63.0711 123.831 62.8971 124.236 62.607V63.7092C123.889 63.9993 123.368 64.1153 122.789 64.1153Z" fill="white"/>
<path d="M131.127 63.303C130.606 63.8251 129.969 64.1151 129.158 64.1151C128.347 64.1151 127.71 63.8251 127.189 63.303C126.668 62.7808 126.437 62.1427 126.437 61.3305C126.437 60.5764 126.668 59.9382 127.189 59.3581C127.71 58.836 128.347 58.5459 129.158 58.5459C129.969 58.5459 130.606 58.836 131.127 59.3581C131.648 59.8802 131.879 60.5183 131.879 61.3305C131.879 62.1427 131.648 62.7808 131.127 63.303ZM128 62.6068C128.289 62.9549 128.695 63.0709 129.158 63.0709C129.621 63.0709 130.027 62.8969 130.316 62.6068C130.606 62.2587 130.779 61.8526 130.779 61.3885C130.779 60.8664 130.606 60.4603 130.316 60.1703C130.027 59.8222 129.621 59.7062 129.158 59.7062C128.695 59.7062 128.289 59.8802 128 60.1703C127.71 60.5183 127.537 60.9244 127.537 61.3885C127.537 61.8526 127.71 62.2587 128 62.6068Z" fill="white"/>
<path d="M138.365 65.1016V63.9994H134.311V58.7202H135.412V63.0132H137.612V58.7202H138.712V63.0132H139.465V65.0436H138.365V65.1016Z" fill="white"/>
<path d="M141.665 63.9994V58.7202H142.765V62.143L145.313 58.7202H146.239V63.9994H145.139V60.5186L142.534 63.9994H141.665Z" fill="white"/>
<path d="M148.498 63.9993L150.756 58.6621H151.798L154.056 63.9993H152.898L152.377 62.781H150.177L149.656 63.9993H148.498ZM150.466 61.9108H152.03L151.277 60.0544L150.466 61.9108Z" fill="white"/>
<path d="M160.31 65.1016V63.9994H156.257V58.7202H157.357V63.0132H159.557V58.7202H160.657V63.0132H161.41V65.0436H160.31V65.1016Z" fill="white"/>
<path d="M163.61 63.9994V58.7202H164.71V62.143L167.258 58.7202H168.185V63.9994H167.084V60.5186L164.479 63.9994H163.61Z" fill="white"/>
<path d="M170.443 63.9995L172.064 61.737C171.717 61.621 171.427 61.4469 171.254 61.2149C171.08 60.9828 170.964 60.6347 170.964 60.2867C170.964 59.8226 171.138 59.4745 171.427 59.1844C171.775 58.8943 172.18 58.7783 172.759 58.7783H175.191V64.0575H174.091V61.911H173.164L171.601 64.0575H170.443V63.9995ZM172.817 60.9828H174.091V59.7065H172.817C172.585 59.7065 172.354 59.7645 172.238 59.8806C172.122 59.9966 172.006 60.1706 172.006 60.3447C172.006 60.5767 172.064 60.6927 172.238 60.8088C172.412 60.9248 172.585 60.9828 172.817 60.9828Z" fill="white"/>
<path d="M181.329 63.9994V58.7202H185.729V63.9994H184.629V59.7064H182.371V63.9994H181.329Z" fill="white"/>
<path d="M188.393 63.9994V58.7202H190.709C191.288 58.7202 191.751 58.8943 192.041 59.1843C192.388 59.4744 192.562 59.8805 192.562 60.3446C192.562 60.8087 192.388 61.2148 192.041 61.5048C191.693 61.7949 191.288 61.9689 190.709 61.9689H189.493V64.0574H188.393V63.9994ZM189.493 60.9827H190.651C190.941 60.9827 191.114 60.9247 191.288 60.8087C191.462 60.6927 191.52 60.5186 191.52 60.3446C191.52 60.1125 191.462 59.9965 191.288 59.8805C191.114 59.7644 190.941 59.7064 190.651 59.7064H189.493V60.9827Z" fill="white"/>
<path d="M199.394 63.303C198.873 63.8251 198.236 64.1151 197.426 64.1151C196.615 64.1151 195.978 63.8251 195.457 63.303C194.936 62.7808 194.704 62.1427 194.704 61.3305C194.704 60.5764 194.936 59.9382 195.457 59.3581C195.978 58.836 196.615 58.5459 197.426 58.5459C198.236 58.5459 198.873 58.836 199.394 59.3581C199.915 59.8802 200.147 60.5183 200.147 61.3305C200.147 62.1427 199.915 62.7808 199.394 63.303ZM196.268 62.6068C196.557 62.9549 196.962 63.0709 197.426 63.0709C197.889 63.0709 198.294 62.8969 198.584 62.6068C198.873 62.2587 199.047 61.8526 199.047 61.3885C199.047 60.8664 198.873 60.4603 198.584 60.1703C198.294 59.8222 197.889 59.7062 197.426 59.7062C196.962 59.7062 196.557 59.8802 196.268 60.1703C195.978 60.5183 195.804 60.9244 195.804 61.3885C195.804 61.8526 195.978 62.2587 196.268 62.6068Z" fill="white"/>
<path d="M202.579 63.9994V58.7202H203.679V62.143L206.227 58.7202H207.153V63.9994H206.053V60.5186L203.448 63.9994H202.579Z" fill="white"/>
<path d="M211.438 64.1153C210.685 64.1153 210.048 63.9413 209.527 63.6512V62.607C209.759 62.781 210.048 62.897 210.338 63.0131C210.685 63.1291 210.975 63.1871 211.264 63.1871C211.67 63.1871 211.959 63.1291 212.191 62.9551C212.423 62.839 212.538 62.607 212.538 62.3749C212.538 62.1429 212.423 62.0269 212.249 61.9108C212.075 61.7948 211.786 61.7368 211.438 61.7368H210.801V60.8086H211.612C212.191 60.8086 212.48 60.6346 212.48 60.2285C212.48 60.0544 212.365 59.9384 212.191 59.8224C212.017 59.7063 211.786 59.6483 211.496 59.6483C210.917 59.6483 210.338 59.7644 209.817 60.0544V59.0682C210.338 58.7781 210.917 58.6621 211.554 58.6621C212.191 58.6621 212.654 58.7781 213.002 59.0682C213.349 59.3583 213.523 59.7063 213.523 60.1704C213.523 60.4605 213.465 60.6345 213.291 60.8666C213.117 61.0406 213.002 61.1567 212.77 61.2727C213.002 61.3887 213.233 61.5047 213.407 61.7368C213.581 61.9688 213.696 62.2009 213.696 62.549C213.696 63.0131 213.523 63.4192 213.117 63.7092C212.654 63.9413 212.133 64.1153 211.438 64.1153Z" fill="white"/>
<path d="M216.07 63.9994V58.7202H218.56C219.023 58.7202 219.429 58.8362 219.718 59.0683C220.008 59.3003 220.182 59.6484 220.182 60.0545C220.182 60.3446 220.124 60.5186 220.008 60.7507C219.892 60.9247 219.718 61.0407 219.545 61.1568C219.834 61.2148 220.066 61.3888 220.297 61.6209C220.529 61.8529 220.587 62.201 220.587 62.5491C220.587 63.0132 220.413 63.3612 220.066 63.6513C219.718 63.9414 219.313 64.0574 218.734 64.0574H216.07V63.9994ZM217.171 60.8087H218.386C218.618 60.8087 218.792 60.7507 218.908 60.6346C219.023 60.5186 219.081 60.4026 219.081 60.2285C219.081 60.0545 219.023 59.8805 218.908 59.7644C218.792 59.6484 218.618 59.5904 218.386 59.5904H217.171V60.8087ZM217.171 63.0712H218.56C218.85 63.0712 219.023 63.0132 219.197 62.8971C219.371 62.7811 219.429 62.6071 219.429 62.375C219.429 62.143 219.371 61.9689 219.197 61.8529C219.023 61.7369 218.85 61.6789 218.56 61.6789H217.171V63.0712Z" fill="white"/>
<path d="M227.419 63.303C226.898 63.8251 226.261 64.1151 225.451 64.1151C224.64 64.1151 224.003 63.8251 223.482 63.303C222.961 62.7808 222.729 62.1427 222.729 61.3305C222.729 60.5764 222.961 59.9382 223.482 59.3581C224.003 58.836 224.64 58.5459 225.451 58.5459C226.261 58.5459 226.898 58.836 227.419 59.3581C227.941 59.8802 228.172 60.5183 228.172 61.3305C228.172 62.1427 227.941 62.7808 227.419 63.303ZM224.293 62.6068C224.582 62.9549 224.987 63.0709 225.451 63.0709C225.914 63.0709 226.319 62.8969 226.609 62.6068C226.898 62.2587 227.072 61.8526 227.072 61.3885C227.072 60.8664 226.898 60.4603 226.609 60.1703C226.319 59.8222 225.914 59.7062 225.451 59.7062C224.987 59.7062 224.582 59.8802 224.293 60.1703C224.003 60.5183 223.829 60.9244 223.829 61.3885C223.829 61.8526 224.003 62.2587 224.293 62.6068Z" fill="white"/>
<path d="M230.083 65.1018V63.0714H230.604C230.836 62.7233 231.009 62.2592 231.125 61.7371C231.241 61.215 231.299 60.5188 231.299 59.6486V58.8364H235.005V63.1294H235.7V65.1598H234.657V64.0576H231.067V65.1598H230.083V65.1018ZM231.82 63.0714H233.962V59.7066H232.399C232.399 60.3448 232.341 60.9829 232.283 61.505C232.167 62.0851 232.052 62.5493 231.82 63.0714Z" fill="white"/>
<path d="M238.016 63.9994V58.7202H239.116V62.143L241.664 58.7202H242.59V63.9994H241.49V60.5186L238.884 63.9994H238.016Z" fill="white"/>
<path d="M244.848 58.7202H249.249V59.7064H247.57V63.9994H246.469V59.7064H244.79V58.7202H244.848Z" fill="white"/>
<path d="M251.507 63.9994V58.7202H255.387V59.7064H252.607V60.7507H254.865V61.7369H252.607V63.0712H255.502V64.0574H251.507V63.9994Z" fill="white"/>
<path d="M257.529 63.9994V63.0132C257.645 63.0712 257.761 63.0712 257.934 63.0712C258.224 63.0712 258.397 62.8971 258.513 62.4911C258.629 62.085 258.687 61.3888 258.687 60.2866V58.7202H262.393V63.9994H261.293V59.7064H259.671L259.613 60.7507C259.556 61.9689 259.44 62.8391 259.208 63.3032C258.976 63.7673 258.513 63.9994 257.876 63.9994C257.761 64.0574 257.645 63.9994 257.529 63.9994Z" fill="white"/>
<path d="M265.056 63.9994V58.7202H268.936V59.7064H266.156V60.7507H268.415V61.7369H266.156V63.0712H269.052V64.0574H265.056V63.9994Z" fill="white"/>
<path d="M271.426 63.9993V58.7202H272.526V62.1429L275.074 58.7202H276V63.9993H274.9V60.5186L272.294 63.9993H271.426ZM273.684 58.4301C273.279 58.4301 272.931 58.3141 272.7 58.082C272.468 57.85 272.294 57.5599 272.294 57.1538H273.105C273.105 57.3278 273.163 57.4439 273.279 57.5599C273.394 57.6759 273.51 57.7339 273.684 57.7339C273.858 57.7339 273.973 57.6759 274.089 57.5599C274.205 57.4439 274.263 57.3278 274.263 57.1538H275.074C275.074 57.5599 274.958 57.85 274.668 58.082C274.437 58.3141 274.089 58.4301 273.684 58.4301Z" fill="white"/>
<path d="M106.171 74.6156V69.3364H110.571V74.6156H109.471V70.3226H107.213V74.6156H106.171Z" fill="white"/>
<path d="M117.693 73.9197C117.172 74.4418 116.535 74.7318 115.724 74.7318C114.914 74.7318 114.277 74.4418 113.756 73.9197C113.235 73.3975 113.003 72.7594 113.003 71.9472C113.003 71.193 113.235 70.5549 113.756 69.9748C114.277 69.4527 114.914 69.1626 115.724 69.1626C116.535 69.1626 117.172 69.4527 117.693 69.9748C118.214 70.4969 118.446 71.135 118.446 71.9472C118.504 72.7594 118.214 73.3975 117.693 73.9197ZM114.566 73.2235C114.856 73.5716 115.261 73.6876 115.724 73.6876C116.188 73.6876 116.593 73.5136 116.883 73.2235C117.172 72.8754 117.346 72.4693 117.346 72.0052C117.346 71.4831 117.172 71.077 116.883 70.787C116.593 70.4389 116.188 70.3229 115.724 70.3229C115.261 70.3229 114.856 70.4969 114.566 70.787C114.277 71.135 114.103 71.5411 114.103 72.0052C114.103 72.4693 114.277 72.8754 114.566 73.2235Z" fill="white"/>
<path d="M123.599 74.732C122.789 74.732 122.094 74.5 121.573 73.9779C121.052 73.4557 120.762 72.8176 120.762 72.0054C120.762 71.1932 121.052 70.5551 121.573 70.033C122.094 69.5109 122.789 69.2788 123.599 69.2788C124.12 69.2788 124.584 69.3948 124.989 69.6269V70.7291C124.584 70.4391 124.12 70.323 123.599 70.323C123.078 70.323 122.673 70.4971 122.325 70.7871C121.978 71.1352 121.804 71.5413 121.804 72.0054C121.804 72.5275 121.978 72.9336 122.325 73.2237C122.673 73.5718 123.078 73.6878 123.599 73.6878C124.178 73.6878 124.642 73.5138 125.047 73.2237V74.3259C124.7 74.558 124.178 74.732 123.599 74.732Z" fill="white"/>
<path d="M127.189 74.616L129.448 69.2788H130.49L132.748 74.616H131.59L131.069 73.3977H128.869L128.347 74.616H127.189ZM129.158 72.4695H130.721L129.969 70.6131L129.158 72.4695Z" fill="white"/>
<path d="M134.717 75.6599V73.6295H135.238C135.469 73.2814 135.643 72.8173 135.759 72.2952C135.875 71.7731 135.933 71.0769 135.933 70.2067V69.3945H139.638V73.6875H140.333V75.7179H139.291V74.6157H135.701V75.7179H134.717V75.6599ZM136.454 73.6295H138.596V70.3227H137.033C137.033 70.9609 136.975 71.599 136.917 72.1211C136.859 72.6433 136.685 73.1654 136.454 73.6295Z" fill="white"/>
<path d="M146.992 73.9197C146.471 74.4418 145.834 74.7318 145.023 74.7318C144.213 74.7318 143.576 74.4418 143.055 73.9197C142.534 73.3975 142.302 72.7594 142.302 71.9472C142.302 71.193 142.534 70.5549 143.055 69.9748C143.576 69.4527 144.213 69.1626 145.023 69.1626C145.834 69.1626 146.471 69.4527 146.992 69.9748C147.513 70.4969 147.745 71.135 147.745 71.9472C147.745 72.7594 147.513 73.3975 146.992 73.9197ZM143.865 73.2235C144.155 73.5716 144.56 73.6876 145.023 73.6876C145.487 73.6876 145.892 73.5136 146.182 73.2235C146.471 72.8754 146.645 72.4693 146.645 72.0052C146.645 71.4831 146.471 71.077 146.182 70.787C145.892 70.4389 145.487 70.3229 145.023 70.3229C144.56 70.3229 144.155 70.4969 143.865 70.787C143.576 71.135 143.402 71.5411 143.402 72.0052C143.402 72.4693 143.576 72.8754 143.865 73.2235Z" fill="white"/>
<path d="M153.13 74.6157V72.5852C152.782 72.7013 152.377 72.7593 151.914 72.7593C151.277 72.7593 150.814 72.6433 150.466 72.3532C150.119 72.0631 149.945 71.657 149.945 71.0769V69.3945H151.045V70.9029C151.045 71.2509 151.103 71.483 151.277 71.599C151.451 71.715 151.682 71.8311 152.03 71.8311C152.435 71.8311 152.782 71.7731 153.072 71.599V69.3945H154.172V74.6737H153.13V74.6157Z" fill="white"/>
<path d="M156.894 74.6156V69.3364H157.994V71.3089H160.368V69.3364H161.468V74.6156H160.368V72.2951H157.994V74.6156H156.894Z" fill="white"/>
<path d="M168.532 73.9197C168.011 74.4418 167.374 74.7318 166.563 74.7318C165.753 74.7318 165.116 74.4418 164.595 73.9197C164.074 73.3975 163.842 72.7594 163.842 71.9472C163.842 71.193 164.074 70.5549 164.595 69.9748C165.116 69.4527 165.753 69.1626 166.563 69.1626C167.374 69.1626 168.011 69.4527 168.532 69.9748C169.053 70.4969 169.285 71.135 169.285 71.9472C169.343 72.7594 169.053 73.3975 168.532 73.9197ZM165.405 73.2235C165.695 73.5716 166.1 73.6876 166.563 73.6876C167.027 73.6876 167.432 73.5136 167.721 73.2235C168.011 72.8754 168.185 72.4693 168.185 72.0052C168.185 71.4831 168.011 71.077 167.721 70.787C167.432 70.4389 167.027 70.3229 166.563 70.3229C166.1 70.3229 165.695 70.4969 165.405 70.787C165.116 71.135 164.942 71.5411 164.942 72.0052C164.942 72.4693 165.116 72.8754 165.405 73.2235Z" fill="white"/>
<path d="M171.717 74.6156V69.3364H175.538V70.3226H172.817V74.6156H171.717Z" fill="white"/>
<path d="M182.197 73.9197C181.676 74.4418 181.039 74.7318 180.228 74.7318C179.418 74.7318 178.781 74.4418 178.26 73.9197C177.739 73.3975 177.507 72.7594 177.507 71.9472C177.507 71.193 177.739 70.5549 178.26 69.9748C178.781 69.4527 179.418 69.1626 180.228 69.1626C181.039 69.1626 181.676 69.4527 182.197 69.9748C182.718 70.4969 182.95 71.135 182.95 71.9472C182.95 72.7594 182.718 73.3975 182.197 73.9197ZM179.07 73.2235C179.36 73.5716 179.765 73.6876 180.228 73.6876C180.692 73.6876 181.097 73.5136 181.387 73.2235C181.676 72.8754 181.85 72.4693 181.85 72.0052C181.85 71.4831 181.676 71.077 181.387 70.787C181.097 70.4389 180.692 70.3229 180.228 70.3229C179.765 70.3229 179.36 70.4969 179.07 70.787C178.781 71.135 178.607 71.5411 178.607 72.0052C178.607 72.4693 178.723 72.8754 179.07 73.2235Z" fill="white"/>
<path d="M188.856 74.6156V69.3364H189.956L191.462 71.5409L192.967 69.3364H194.009V74.6156H192.967V71.0188L191.751 72.7012H191.172L189.956 71.0188V74.6156H188.856Z" fill="white"/>
<path d="M196.268 74.616L198.526 69.2788H199.568L201.826 74.616H200.668L200.147 73.3977H197.947L197.426 74.616H196.268ZM198.294 72.4695H199.858L199.105 70.6131L198.294 72.4695Z" fill="white"/>
<path d="M203.042 69.3364H207.443V70.3226H205.764V74.6156H204.664V70.3226H202.984V69.3364H203.042Z" fill="white"/>
<path d="M209.701 74.6156V69.3364H213.581V70.3226H210.801V71.3669H213.059V72.3531H210.801V73.6874H213.696V74.6736H209.701V74.6156Z" fill="white"/>
<path d="M216.07 74.6156V69.3364H218.386C218.966 69.3364 219.429 69.5105 219.718 69.8005C220.066 70.0906 220.239 70.4967 220.239 70.9608C220.239 71.4249 220.066 71.831 219.718 72.121C219.371 72.4111 218.966 72.5851 218.386 72.5851H217.171V74.6736H216.07V74.6156ZM217.171 71.5989H218.329C218.618 71.5989 218.792 71.5409 218.966 71.4249C219.139 71.3089 219.197 71.1348 219.197 70.9608C219.197 70.7287 219.139 70.6127 218.966 70.4967C218.792 70.3807 218.618 70.3226 218.329 70.3226H217.171V71.5989Z" fill="white"/>
<path d="M222.498 74.6156V69.3364H223.598V72.7592L226.146 69.3364H227.072V74.6156H225.972V71.1348L223.366 74.6156H222.498Z" fill="white"/>
<path d="M229.272 74.616L231.53 69.2788H232.573L234.831 74.616H233.673L233.152 73.3977H230.951L230.43 74.616H229.272ZM231.299 72.4695H232.862L232.11 70.6131L231.299 72.4695Z" fill="white"/>
<path d="M236.8 74.558V73.5718C236.915 73.6298 237.031 73.6298 237.205 73.6298C237.494 73.6298 237.668 73.4557 237.784 73.0496C237.9 72.6436 237.958 71.9474 237.958 70.8452V69.2788H241.664V74.558H240.563V70.265H238.942L238.884 71.3093C238.826 72.5275 238.71 73.3977 238.479 73.8618C238.247 74.3259 237.784 74.558 237.147 74.558C237.031 74.616 236.915 74.616 236.8 74.558Z" fill="white"/>
<path d="M243.864 74.616L246.122 69.2788H247.164L249.423 74.616H248.264L247.743 73.3977H245.543L245.022 74.616H243.864ZM245.89 72.4695H247.454L246.701 70.6131L245.89 72.4695Z" fill="white"/>
<path d="M16.1315 47.7556C18.0423 48.5677 20.1268 48.4517 21.8639 47.6395C21.2848 45.7831 19.8952 44.2168 17.9844 43.3466C16.0736 42.4764 13.9891 42.6504 12.252 43.4626C12.8889 45.319 14.2207 46.9434 16.1315 47.7556Z" fill="#B28160"/>
<path d="M30.723 42.1864C32.518 43.2307 34.6025 43.3467 36.4554 42.7086C36.0501 40.7941 34.892 39.0538 33.097 38.0095C31.302 36.9653 29.2176 36.8493 27.3647 37.4874C27.77 39.4018 28.928 41.1422 30.723 42.1864Z" fill="#B28160"/>
<path d="M16.3049 17.879C16.4786 15.7905 15.7259 13.8181 14.3941 12.4258C12.8308 13.586 11.7306 15.3844 11.5569 17.4729C11.3832 19.5614 12.1359 21.5338 13.4676 22.9261C15.031 21.7659 16.1312 19.9675 16.3049 17.879Z" fill="#B28160"/>
<path d="M7.27248 34.0068C5.18797 33.8328 3.21926 34.5289 1.82959 35.8632C2.98765 37.4296 4.72472 38.5318 6.80923 38.7639C8.89374 38.9379 10.8624 38.2418 12.2521 36.9075C11.1519 35.2831 9.35699 34.1809 7.27248 34.0068Z" fill="#B28160"/>
<path d="M9.29869 58.314C11.3253 57.9079 13.0045 56.6316 13.931 54.8912C12.3676 53.731 10.341 53.2089 8.31437 53.615C6.28777 54.0211 4.60858 55.2973 3.68213 57.0377C5.18761 58.256 7.21418 58.7781 9.29869 58.314Z" fill="#B28160"/>
<path d="M22.6164 27.7993C20.8793 28.9595 19.8371 30.7579 19.6055 32.7304C21.4584 33.2525 23.5429 32.9624 25.2799 31.8022C27.017 30.6419 28.0593 28.8435 28.2909 26.8711C26.438 26.407 24.3535 26.639 22.6164 27.7993Z" fill="#B28160"/>
<path d="M37.208 16.0807C36.3973 17.9951 36.5131 20.0836 37.3238 21.824C39.1767 21.2439 40.74 19.8515 41.6086 17.9371C42.4192 16.0227 42.3034 13.9342 41.4928 12.1938C39.582 12.774 38.0186 14.1663 37.208 16.0807Z" fill="#B28160"/>
<path d="M42.5351 30.4097C41.4929 32.2081 41.3771 34.2965 42.014 36.1529C43.9248 35.7469 45.6619 34.5866 46.7041 32.7882C47.7464 30.9898 47.8622 28.9013 47.2253 27.0449C45.3145 27.451 43.5774 28.6113 42.5351 30.4097Z" fill="#B28160"/>
<path d="M67.0283 16.2545C69.1128 16.4285 71.0815 15.6744 72.4712 14.3401C71.3131 12.7737 69.5181 11.6715 67.4336 11.4974C65.3491 11.3234 63.3804 12.0776 61.9907 13.4119C63.1488 14.9782 64.9438 16.0224 67.0283 16.2545Z" fill="#B28160"/>
<path d="M50.9311 7.20468C51.1048 5.11621 50.4099 3.14377 49.0782 1.75146C47.5148 2.91172 46.4146 4.65211 46.183 6.74057C46.0093 8.82904 46.7042 10.8015 48.0359 12.1938C49.5993 11.0335 50.6995 9.29314 50.9311 7.20468Z" fill="#B28160"/>
<path d="M30.0281 13.8762C31.1862 12.3098 31.7073 10.2794 31.302 8.24894C30.8967 6.21849 29.6228 4.53612 27.8857 3.60791C26.7276 5.17426 26.2065 7.20471 26.6118 9.23516C27.0172 11.2656 28.3489 12.89 30.0281 13.8762Z" fill="#B28160"/>
<path d="M52.2049 19.5615C51.6838 21.4179 51.9733 23.5064 53.1314 25.2468C54.2895 26.9872 56.0844 28.0314 58.0532 28.2635C58.5743 26.407 58.2847 24.3186 57.1267 22.5782C55.9107 20.8378 54.1157 19.7936 52.2049 19.5615Z" fill="#B28160"/>
<path d="M47.8624 68.9884C48.6731 67.074 48.5573 64.9855 47.7466 63.2451C45.8938 63.8252 44.3304 65.2176 43.4618 67.132C42.6512 69.0464 42.767 71.1349 43.5776 72.8753C45.4305 72.2951 47.0518 70.9608 47.8624 68.9884Z" fill="#B28160"/>
<path d="M41.7823 53.9049C42.8245 52.1065 42.9403 50.018 42.3034 48.1616C40.3926 48.5677 38.6555 49.728 37.6133 51.5264C36.571 53.3248 36.4552 55.4132 37.0921 57.2696C39.0029 56.9216 40.74 55.7613 41.7823 53.9049Z" fill="#B28160"/>
<path d="M18.042 68.8724C15.9575 68.6984 13.9888 69.4526 12.5991 70.7868C13.7572 72.3532 15.5522 73.4554 17.6367 73.6295C19.7213 73.8035 21.69 73.0493 23.0796 71.7151C21.9216 70.0907 20.1265 69.0465 18.042 68.8724Z" fill="#B28160"/>
<path d="M38.8252 78.317C39.1036 75.4148 38.2712 72.9602 36.9661 72.8346C35.661 72.7089 34.3774 74.9597 34.099 77.8619C33.8207 80.7641 34.653 83.2187 35.9581 83.3443C37.2632 83.47 38.5469 81.2191 38.8252 78.317Z" fill="#B28160"/>
<path d="M54.9843 71.251C53.8262 72.8173 53.3051 74.8478 53.7104 76.8782C54.1157 78.9087 55.3896 80.5911 57.1267 81.5193C58.2847 79.9529 58.8059 77.9225 58.4005 75.892C57.9952 73.8616 56.7214 72.1792 54.9843 71.251Z" fill="#B28160"/>
<path d="M32.8651 65.5657C33.3863 63.7093 33.0967 61.6208 31.9387 59.8804C30.7806 58.1401 28.9856 57.0958 27.0169 56.8638C26.4958 58.7202 26.7853 60.8086 27.9434 62.549C29.1015 64.2314 30.8964 65.2756 32.8651 65.5657Z" fill="#B28160"/>
<path d="M72.7603 41.6646C72.1813 39.8081 70.7916 38.2418 68.8808 37.3716C66.97 36.5594 64.8855 36.6754 63.1484 37.4876C63.7275 39.344 65.1171 40.9104 67.0279 41.7806C68.9387 42.5928 71.0232 42.4767 72.7603 41.6646Z" fill="#B28160"/>
<path d="M54.8105 43.1726C53.0155 42.1284 50.931 42.0123 49.0781 42.6505C49.4834 44.5649 50.6415 46.3053 52.4365 47.3495C54.2314 48.3938 56.316 48.5098 58.1689 47.8716C57.8214 45.9572 56.6634 44.2168 54.8105 43.1726Z" fill="#B28160"/>
<path d="M68.7073 67.2483C68.5336 69.3368 69.2863 71.3092 70.6181 72.7015C72.1815 71.5412 73.2816 69.7428 73.4553 67.6544C73.629 65.5659 72.8763 63.5935 71.5445 62.2012C69.9812 63.3614 68.881 65.1598 68.7073 67.2483Z" fill="#B28160"/>
<path d="M78.2036 46.3633C76.1191 46.1892 74.1504 46.8854 72.7607 48.2197C73.9188 49.786 75.6559 50.8883 77.7404 51.1203C79.8249 51.3524 81.7936 50.5982 83.1832 49.2639C82.0831 47.6976 80.2881 46.5953 78.2036 46.3633Z" fill="#B28160"/>
<path d="M75.7715 26.813C73.7449 27.2191 72.0657 28.4954 71.1392 30.2358C72.7026 31.3961 74.7292 31.9182 76.7558 31.5121C78.7824 31.106 80.4616 29.8297 81.3881 28.0893C79.8247 26.9291 77.7981 26.3489 75.7715 26.813Z" fill="#B28160"/>
<path d="M62.3957 57.3279C64.1327 56.1677 65.175 54.3693 65.4066 52.3968C63.5537 51.8747 61.4692 52.1648 59.7321 53.325C57.995 54.4853 56.9528 56.2837 56.7212 58.2561C58.5741 58.7782 60.6586 58.4882 62.3957 57.3279Z" fill="#B28160"/>
<path d="M84.5149 39.4599C78.6087 34.6448 71.5446 32.2663 64.4804 32.2083C68.2441 27.9153 72.9921 24.4345 78.2034 22.114C78.7824 21.882 79.072 21.1858 78.7824 20.5477C78.5508 19.9675 77.856 19.6775 77.2191 19.9675C71.0234 22.6942 65.5227 26.9871 61.2957 32.3243C54.4632 32.9624 47.8623 35.8051 42.5352 40.7942C40.7402 38.8798 39.2347 36.7333 38.0767 34.5288C40.1033 27.9733 43.809 22.114 48.7308 17.473C51.3364 16.7768 58.6901 16.6028 65.4069 23.2743C65.6385 23.5063 65.928 23.6224 66.2175 23.6224C66.507 23.6224 66.7965 23.5063 67.0281 23.2743C67.4914 22.8102 67.4914 22.056 67.0281 21.5919C61.7011 16.3707 55.9687 14.8624 51.8576 14.8044C55.6213 11.9038 59.9061 9.69927 64.5383 8.30696C65.1753 8.13292 65.5227 7.49478 65.3489 6.85664C65.1752 6.21849 64.5383 5.87042 63.9014 6.04446C57.7057 7.84286 52.0892 11.1496 47.4569 15.4425C47.3411 15.5006 47.2253 15.6166 47.1674 15.7326C42.5352 20.0836 38.9452 25.4788 36.687 31.4541C32.8654 21.7659 34.3708 10.4534 41.3192 1.86753C41.7245 1.34541 41.6666 0.649257 41.1455 0.243167C40.9718 0.0691282 40.6823 0.0111154 40.4507 0.0111154C40.1032 -0.0468975 39.6979 0.127141 39.4084 0.417206C34.6025 6.27651 32.2284 13.3541 32.1705 20.4317C27.8857 16.6608 24.4695 11.9618 22.2113 6.74061C21.9796 6.16048 21.2848 5.87042 20.6478 6.16048C20.0688 6.39253 19.7793 7.08869 20.0688 7.72683C22.7902 13.9342 27.0172 19.3874 32.2864 23.6224C32.9233 30.4679 35.7605 37.1394 40.7402 42.5346C38.8294 44.275 36.7449 45.7833 34.5445 46.9435C28.0015 44.9131 22.0954 41.2003 17.4632 36.2692C16.7683 33.6586 16.5946 26.291 23.2535 19.5034C23.7167 19.0393 23.7167 18.2852 23.2535 17.8211C22.7902 17.357 22.0375 17.357 21.5743 17.8211C16.3051 23.1583 14.8575 28.9595 14.7996 33.0785C11.9045 29.3076 9.70421 25.0147 8.31454 20.3736C8.14083 19.7355 7.5039 19.3874 6.86696 19.5615C6.23003 19.7355 5.8826 20.3736 6.05631 21.0118C9.7042 33.5426 19.3161 43.8108 31.4757 48.3359C28.8122 49.3801 25.9749 50.0762 23.1377 50.3083C22.964 50.3083 22.7903 50.3083 22.6165 50.3663C15.3787 50.8304 7.96706 48.6839 1.88725 43.7528C1.36612 43.3467 0.67133 43.4048 0.266009 43.9269C-0.139312 44.449 -0.0814512 45.1451 0.439676 45.5512C6.28788 50.3663 13.352 52.7448 20.4162 52.8028C16.6525 57.0958 11.9624 60.5186 6.75112 62.7811C6.17209 63.0131 5.88257 63.7093 6.17209 64.3474C6.34579 64.8115 6.80903 65.0436 7.27226 65.0436C7.44597 65.0436 7.5618 64.9855 7.73551 64.9275C13.9311 62.2009 19.374 57.966 23.6009 52.6868C30.8387 52.0487 37.845 48.916 43.3458 43.4048C54.1737 32.5563 71.2551 31.6862 83.0673 41.3743C83.5884 41.7804 84.2832 41.7224 84.6886 41.2003C85.0939 40.6201 85.036 39.866 84.5149 39.4599Z" fill="#B28160"/>
<path d="M52.668 61.5047C52.1469 55.7035 50.0624 50.0762 46.4145 45.2031C46.2408 45.3772 46.0091 45.5512 45.8354 45.7833C45.488 46.1313 45.0827 46.4794 44.7353 46.8275C45.6038 47.9877 46.3566 49.206 46.9935 50.4243C45.0248 56.8637 41.3769 62.665 36.6289 67.248C34.2549 68.0022 26.6696 68.4083 19.6633 61.5047C19.2001 61.0406 18.4473 61.0406 17.9841 61.5047C17.5209 61.9688 17.5209 62.723 17.9841 63.1871C23.427 68.5243 29.2752 69.9746 33.3863 69.9746C29.5647 72.9913 25.1641 75.2538 20.416 76.6461C19.7791 76.8201 19.4317 77.4583 19.6054 78.0964C19.7791 78.6185 20.2423 78.9666 20.7055 78.9666C20.8213 78.9666 20.9372 78.9666 21.053 78.9086C33.5601 75.2538 43.8089 65.6237 48.3253 53.441C49.3676 56.1095 50.0624 58.9522 50.294 61.7948C50.294 61.9688 50.294 62.1429 50.3519 62.3169C50.8151 69.5685 48.6727 76.9942 43.7509 83.0855C43.3456 83.6077 43.4035 84.3038 43.9246 84.7099C44.1563 84.8839 44.3879 85 44.6774 85C45.0248 85 45.3722 84.8259 45.6038 84.5939C50.4098 78.7346 52.7838 71.657 52.8417 64.5794C57.1265 68.3503 60.5428 73.0493 62.801 78.2705C62.9748 78.7346 63.438 78.9666 63.9012 78.9666C64.0749 78.9666 64.1907 78.9086 64.3644 78.8506C64.9434 78.6185 65.2329 77.9224 64.9434 77.2843C62.222 71.2509 57.9951 65.7397 52.668 61.5047Z" fill="#B28160"/>
<path d="M56.6057 38.1836C55.6793 38.5897 54.7528 39.0538 53.8843 39.5179C58.9797 41.6064 63.5541 44.7971 67.3178 48.7419C68.0126 51.2365 68.3021 58.7202 61.5853 65.6237C61.1221 66.0878 61.1221 66.842 61.5853 67.3061C61.817 67.5381 62.1065 67.6541 62.396 67.6541C62.6855 67.6541 62.975 67.5381 63.2066 67.3061C68.4758 61.9109 69.9813 56.0516 69.9813 51.9326C72.9343 55.7615 75.2504 60.1705 76.6401 64.8695C76.8138 65.3916 77.2771 65.7397 77.7403 65.7397C77.8561 65.7397 77.9719 65.7397 78.0877 65.6817C78.7246 65.5077 79.0721 64.8695 78.8984 64.2314C75.54 52.7448 67.2019 43.2307 56.6057 38.1836Z" fill="#B28160"/>
</g>
</g>
<defs>
<clipPath id="clip0_1224_2">
<rect width="276" height="85" fill="white"/>
</clipPath>
</defs>
</svg>
