<svg width="521" height="175" viewBox="0 0 521 175" fill="none" xmlns="http://www.w3.org/2000/svg">
<g clip-path="url(#clip0_1206_2)">
<path fill-rule="evenodd" clip-rule="evenodd" d="M511.493 130.499H521C514.24 114.915 505.817 91.9859 499.571 73.0217H485.811C478.22 91.2522 470.379 112.358 464.292 130.499H473.045C474.712 125.305 476.466 119.941 478.301 114.499H505.237C507.331 120.268 509.577 125.711 511.493 130.499ZM493.484 79.941C496.241 88.6849 499.409 98.2512 502.739 107.322H480.718C484.058 98.0033 487.556 88.7639 491.148 79.941H493.484Z" fill="white"/>
<path fill-rule="evenodd" clip-rule="evenodd" d="M430.285 103.277V80.0998H448.257C453.571 80.0998 456.348 84.3922 456.348 92.1444C456.348 99.074 453.571 103.277 447.934 103.277H430.285ZM430.285 130.499V110.464H449.811C461.172 110.464 465.496 101.641 465.496 92.2338C465.496 81.6761 461.813 73.0217 449.481 73.0217H421.942V130.499H430.285Z" fill="white"/>
<path fill-rule="evenodd" clip-rule="evenodd" d="M386.964 71.6038C369.645 71.6038 361.341 77.9582 361.341 101.384C361.341 125.057 369.645 131.649 386.964 131.649C404.364 131.649 412.587 125.057 412.587 101.384C412.587 77.9582 404.283 71.6038 386.964 71.6038ZM386.964 124.145C373.916 124.145 370.036 120.189 370.036 101.552C370.036 82.2509 373.907 79.039 386.964 79.039C400.092 79.039 404.053 82.2509 404.053 101.552C404.044 120.189 400.092 124.145 386.964 124.145Z" fill="white"/>
<path fill-rule="evenodd" clip-rule="evenodd" d="M344.666 80.189V130.499H353.089V73.0117H315.544C314.632 93.9586 309.457 113.429 303.781 130.489H312.877C318.462 114.658 322.303 95.5248 323.386 80.1793H344.666V80.189Z" fill="white"/>
<path fill-rule="evenodd" clip-rule="evenodd" d="M265.033 73.1108C243.723 73.8244 237.445 79.8519 236.974 92.3527C236.954 92.8781 236.944 101.066 236.944 101.622C236.944 115.233 243.583 121.894 265.795 122.638V130.549L274.228 130.509V122.598C296.731 121.854 303.781 115.302 303.781 101.612C303.781 100.967 303.761 92.6898 303.741 92.075C303.17 79.6834 296.561 73.8047 275.011 73.0911H265.033V73.1108ZM295.318 101.711C295.318 111.198 290.564 115.153 274.218 115.649V80.1293C289.411 80.4368 294.896 83.8072 295.267 92.0948C295.298 92.7193 295.318 101.027 295.318 101.711ZM245.348 101.711C245.348 101.126 245.358 92.8978 245.378 92.3625C245.688 83.966 250.983 80.5953 265.775 80.1293V115.659C250.021 115.074 245.348 111.119 245.348 101.711Z" fill="white"/>
<path fill-rule="evenodd" clip-rule="evenodd" d="M488.98 53.4624C485.912 54.0078 484.249 55.5047 480.666 64.7836H485.061C488.018 55.693 490.164 54.4142 493.332 54.4142H497.804V64.7836H501.574V39.3259H489.132C483.556 39.3259 481.889 42.7261 481.889 46.7411C481.88 50.3198 483.585 53.393 488.98 53.4624ZM497.804 51.2716H489.863C487.384 51.2716 486.051 49.7054 486.051 46.999C486.051 44.0448 487.384 42.4685 489.711 42.4685H497.804V51.2716ZM456.92 42.3991C458.134 46.2653 459.548 50.4984 461.024 54.5231H451.264C452.739 50.3992 454.293 46.3049 455.878 42.3991H456.92ZM464.904 64.7836H469.114C466.127 57.8837 462.386 47.7324 459.619 39.3259H453.522C450.16 47.3954 446.691 56.7436 443.996 64.7836H447.876C448.617 62.4836 449.39 60.1043 450.212 57.6954H462.146C463.059 60.253 464.059 62.6619 464.904 64.7836ZM413.748 52.9173H426.094V64.7836H429.825V39.3259H426.094V49.5168H413.748V39.3259H410.021V64.7836H413.748V52.9173ZM378.67 64.7836V55.9111H387.495C392.63 55.9111 394.585 52.005 394.585 47.8416C394.585 43.1623 392.921 39.3259 387.346 39.3259H374.9V64.7836H378.67ZM378.67 52.7287V42.4685H386.792C389.2 42.4685 390.456 44.3718 390.456 47.8018C390.456 50.875 389.2 52.7387 386.644 52.7387H378.67V52.7287ZM341.546 39.3259V64.7836H359.687V61.6112H345.277V52.8774H355.507V49.7349H345.277V42.5084H359.687V39.3259H341.546ZM319.144 51.2023C323.729 50.7959 324.35 48.575 324.35 45.3929C324.35 41.9234 323.276 39.3259 318.141 39.3259H305.025V64.7836H318.432C322.574 64.7836 324.971 62.553 324.971 57.6954C324.981 54.0473 324.017 51.4204 319.144 51.2023ZM308.755 42.4685H317.58C319.756 42.4685 320.388 43.7473 320.388 46.0472C320.388 48.1291 319.726 49.7747 317.58 49.7747H308.755V42.4685ZM308.755 61.641V52.8081H317.73C319.946 52.8081 320.949 54.6323 320.949 57.3782C320.949 60.0051 320.137 61.6508 317.881 61.6508H308.755V61.641ZM271.641 39.3259V64.7836H289.782V61.6112H275.372V52.8774H285.6V49.7349H275.372V42.5084H289.782V39.3259H271.641ZM237.556 51.8167C237.556 62.1861 241.396 65.2891 249.489 65.2891C251.816 65.2891 254.774 64.9223 256.77 64.3373L255.847 61.0162C254.373 61.5318 251.826 61.8591 249.941 61.8591C243.883 61.8591 241.627 60.3917 241.627 51.8465C241.627 43.2615 243.883 42.0919 249.941 42.0919C251.826 42.0919 254.373 42.4189 255.847 42.9643L256.77 39.6432C254.814 39.0981 251.816 38.6914 249.489 38.6914C241.396 38.7115 237.556 41.4078 237.556 51.8167Z" fill="white"/>
<path fill-rule="evenodd" clip-rule="evenodd" d="M32.9725 72.3374L32.9524 92.7094C32.9524 116.749 46.0189 126.524 69.7354 125.721L51.3237 149.314C37.4751 146.529 26.9656 142.227 19.1637 136.328C5.22463 125.8 0 110.643 0 90.4392L0.0501406 72.2185L0.100281 64.5457C0.822303 45.8888 6.14722 31.9704 19.6952 22.3149C30.4654 14.6419 46.3599 9.93309 69.2943 7.95044V36.2132C58.8148 36.4018 50.3111 35.4996 44.575 38.87C36.803 43.4304 33.4035 50.4884 33.0126 60.6299L32.9725 72.3374Z" fill="#008027"/>
<path fill-rule="evenodd" clip-rule="evenodd" d="M162.365 15.9307C179.954 12.9567 201.264 12.1438 217.179 0C204.904 3.21192 187.997 12.5205 135.911 8.56512C132.491 8.1785 128.901 7.86126 125.141 7.60352H125.131C121.5 7.3557 117.69 7.16735 113.719 7.04838L113.578 7.02855H84.9579L84.8178 7.04838L82.6516 7.12769V82.5977C74.9599 61.6907 63.839 57.0017 52.9485 50.9545C35.8807 90.3204 59.216 108.581 76.033 116.333L67.84 94.8905L77.5675 113.607L82.6616 102.008V102.038C101.765 59.2223 107.14 29.1154 162.365 15.9307Z" fill="#56AD24"/>
<path fill-rule="evenodd" clip-rule="evenodd" d="M196.942 60.1145C200.582 48.6945 206.71 29.2742 217.179 23.7029C191.988 59.936 213.027 112.764 180.556 136.407C167.289 146.073 146.581 151.377 115.755 152.755V174.871L82.7219 175V138.43L102.287 127.01C169.796 127.793 183.665 98.0824 196.942 60.1145Z" fill="#56AD24"/>
<path fill-rule="evenodd" clip-rule="evenodd" d="M44.0835 173.929C46.8613 174.019 49.6291 174.108 52.3968 174.207C74.3885 134.435 120.769 77.3834 179.072 33.0906C147.173 54.0079 83.0527 109.929 44.0835 173.929Z" fill="#56AD24"/>
</g>
<defs>
<clipPath id="clip0_1206_2">
<rect width="521" height="175" fill="white"/>
</clipPath>
</defs>
</svg>
