<svg width="261" height="320" viewBox="0 0 261 320" fill="none" xmlns="http://www.w3.org/2000/svg">
<rect width="260.8" height="320" fill="#E5E7EB"/>
<path fill-rule="evenodd" clip-rule="evenodd" d="M98.6639 153.175L98.6556 161.673C98.6556 171.701 104.07 175.778 113.899 175.443L106.269 185.285C100.53 184.123 96.1747 182.329 92.9415 179.868C87.1651 175.477 85 169.154 85 160.726L85.0208 153.125L85.0416 149.925C85.3408 142.142 87.5474 136.336 93.1618 132.308C97.625 129.108 104.212 127.143 113.716 126.316V138.106C109.373 138.185 105.849 137.808 103.472 139.214C100.251 141.117 98.8426 144.061 98.6806 148.291L98.6639 153.175Z" fill="#D1D5DB"/>
<path fill-rule="evenodd" clip-rule="evenodd" d="M152.285 129.645C159.574 128.405 168.405 128.066 175 123C169.913 124.34 162.907 128.223 141.322 126.573C139.905 126.412 138.417 126.279 136.859 126.172H136.855C135.35 126.068 133.771 125.99 132.126 125.94L132.067 125.932H120.207L120.149 125.94L119.251 125.973V157.455C116.064 148.734 111.455 146.778 106.942 144.255C99.8691 160.676 109.539 168.294 116.508 171.527L113.113 162.583L117.144 170.39L119.255 165.552V165.564C127.172 147.704 129.399 135.145 152.285 129.645Z" fill="#D1D5DB"/>
<path fill-rule="evenodd" clip-rule="evenodd" d="M166.614 148.076C168.122 143.312 170.661 135.211 175 132.887C164.561 148.002 173.28 170.039 159.823 179.901C154.325 183.933 145.744 186.146 132.969 186.72V195.946L119.28 196V180.745L127.388 175.981C155.364 176.308 161.112 163.914 166.614 148.076Z" fill="#D1D5DB"/>
<path fill-rule="evenodd" clip-rule="evenodd" d="M103.268 195.553C104.42 195.591 105.567 195.628 106.714 195.669C115.827 179.078 135.047 155.28 159.208 136.803C145.989 145.529 119.417 168.856 103.268 195.553Z" fill="#D1D5DB"/>
</svg>
