<svg width="23" height="19" viewBox="0 0 23 19" fill="none" xmlns="http://www.w3.org/2000/svg">
<path d="M22.8436 0.673287L19.364 18.2165C19.364 18.2165 18.8775 19.4331 17.5392 18.8492L9.50981 12.6932L6.59013 11.2821L1.67519 9.62745C1.67519 9.62745 0.920914 9.35989 0.847861 8.77593C0.774808 8.19196 1.69954 7.8757 1.69954 7.8757L21.2375 0.211228C21.2375 0.211228 22.8435 -0.494341 22.8435 0.673593" fill="#1A1F2C"/>
<path d="M8.89253 18.0188C8.89253 18.0188 8.65815 17.9969 8.36594 17.0722C8.07419 16.1476 6.58984 11.2814 6.58984 11.2814L18.3906 3.78737C18.3906 3.78737 19.072 3.3737 19.0477 3.78737C19.0477 3.78737 19.1693 3.86042 18.8041 4.20103C18.4393 4.54179 9.53403 12.5467 9.53403 12.5467" fill="#DBDBDB"/>
</svg>
