<svg width="24" height="24" viewBox="0 0 24 24" fill="none" xmlns="http://www.w3.org/2000/svg">
<ellipse cx="12.2488" cy="12.25" rx="11.4051" ry="11.4053" fill="#1A1F2C"/>
<path fill-rule="evenodd" clip-rule="evenodd" d="M12.1485 0C15.5772 0.0366679 18.96 1.6088 21.1585 4.23972C22.9532 6.33896 23.963 9.0753 23.9997 11.8346C23.6776 11.8229 23.3552 11.8128 23.0327 11.8027C21.3327 11.7497 19.6291 11.6965 17.9548 11.4037C16.5411 11.1562 15.1365 10.5695 14.1681 9.48323C13.172 8.43361 12.713 7.00815 12.5065 5.6056C12.2746 4.01984 12.2244 2.41055 12.1745 0.806516L12.1745 0.806367C12.1661 0.537385 12.1577 0.268551 12.1485 0ZM23.9997 12.0908C22.2509 12.1367 20.5021 12.1871 18.7671 12.3889C17.4039 12.5677 16.0086 12.9024 14.9116 13.7644C13.6998 14.6632 12.9425 16.0571 12.6533 17.5198C12.2926 19.2982 12.2367 21.116 12.181 22.9288C12.1707 23.2612 12.1605 23.5935 12.1484 23.9254C14.9621 23.8887 17.7619 22.8433 19.8779 20.9771C22.4391 18.7807 23.9584 15.461 23.9997 12.0908ZM1.04437 12.1998L1.04421 12.1998L1.04406 12.1998C0.695711 12.1889 0.347599 12.1781 0 12.165C0.0413095 14.9839 1.09241 17.7798 2.96051 19.8928C5.16369 22.4458 8.48681 23.9583 11.8512 23.9996L11.8467 23.8353V23.8352C11.8024 22.2446 11.7582 20.6542 11.5896 19.0724C11.4152 17.4727 11.0113 15.7952 9.88674 14.576C8.95957 13.508 7.61013 12.8938 6.23315 12.6326C4.52072 12.3081 2.77963 12.2539 1.04437 12.1998ZM11.8937 9.97885e-05C9.50853 0.0458052 7.12334 0.76795 5.17099 2.14368C2.00762 4.28727 0.0414415 7.99854 0 11.7921C1.22022 11.7829 2.44505 11.7235 3.66528 11.6504C5.24466 11.5361 6.87009 11.3762 8.30212 10.6586C9.79402 9.88618 10.8807 8.45103 11.2767 6.83763C11.7335 5.02399 11.7914 3.14991 11.8491 1.2842C11.8624 0.855447 11.8756 0.427135 11.8937 9.97885e-05Z" fill="white"/>
</svg>
